<svg width="682.667" height="682.667" preserveAspectRatio="xMidYMid meet" version="1.0" viewBox="0 0 512 512"><path d="M484.5 122.6c-32.5 28.4-72.1 49.1-114 59.5-20.4 5.1-35.8 7-60.7 7.6l-22.8.6V167h4.8c3.8 0 5.3-.5 7-2.3 3-3.2 2.8-7.1-.4-9.6-2.4-1.9-4-2.1-18.5-2.1-14.6 0-16.1.2-17.9 2-1.1 1.1-2 3.3-2 5 0 4.6 3.1 7 9 7h5v23h-43v-23h5c5.9 0 9-2.4 9-7 0-1.7-.9-3.9-2-5-1.8-1.8-3.3-2-18.5-2s-16.7.2-18.5 2c-1.2 1.2-2 3.3-2 5.4 0 4.5 2.9 6.6 9.2 6.6h4.8v23h-43v-23h5c3.7 0 5.5-.5 7-2 2.7-2.7 2.6-7.4-.2-10-2-1.8-3.5-2-17.9-2-14.3 0-15.9.2-18.3 2.1-3.2 2.5-3.5 7-.6 9.9 1.5 1.5 3.3 2 7 2h5v23H66.9l-5-5.4c-7.4-8.1-12-9.7-29.2-10.1-13.6-.3-14-.3-16.3 2l-2.4 2.4V225c0 54.9-1.3 50 13.8 50 11.8 0 21.2-1.4 26.1-4 2-1 5.8-4.1 8.6-6.9l4.9-5.1h26.1l26 .1-6.2 5.7c-15.7 14.5-23 30.3-24 51.7-.5 10.2-.2 13.3 1.6 20.4 5.6 22.2 19.5 39.1 40.3 49.1 14.6 7 13.9 7 93.2 7 67.9 0 71.2-.1 79.5-2 44.5-10.6 68.6-60.1 49.6-101.7-4.3-9.3-8.5-15.3-15.8-22.5-6.7-6.6-6.9-6.5 7.6-4.3 50.6 7.6 97.7 29.2 137 62.7 3.7 3.2 7.6 5.8 8.6 5.8s3-.9 4.5-2.1l2.6-2v-102c0-100.6 0-101.9-2-103.9-3-3-6.9-2.4-11.5 1.6zm-.7 143.4-.3 42.1-5.6-4.3c-3-2.4-8.5-6.3-12.2-8.8l-6.7-4.4V159.1l8.8-6c4.8-3.3 10.3-7.3 12.2-8.9l3.5-3 .3 41.3c.1 22.8.1 60.3 0 83.5zM445 225v56.9l-11.8-5.9c-27.6-13.8-55.9-22.7-87.7-27.6-6.5-1-20.7-1.9-34.5-2.3l-23.5-.6-.3-20.6-.2-20.6 22.7-.6c34.1-.9 62.7-6 91.8-16.5 11.8-4.2 32.8-13.5 38.5-17 1.9-1.2 3.8-2.2 4.3-2.2.4 0 .7 25.6.7 57zM44.5 189.1c2.3.7 5.3 2.6 7.2 4.7l3.3 3.6v54.8l-3.3 3.3c-3.9 3.9-8.9 5.5-17.4 5.5H28v-73h6.3c3.4 0 8 .5 10.2 1.1zm117.3 35.6-.3 20.8-45.7.3-45.8.2v-42h92l-.2 20.7zm56 0-.3 20.8h-42l-.3-20.8-.2-20.7h43l-.2 20.7zm56 0-.3 20.8h-42l-.3-20.8-.2-20.7h43l-.2 20.7zM162 268.8v8.8l-5.9 1.2c-14.8 3.1-27.1 14.5-31.5 29.1-6.3 21.4 6.5 45.2 27.8 51.6 7.4 2.3 134.5 2.4 141.8.1 15.8-4.8 28.1-20 29.5-36.4 1.7-20.4-11.8-39.2-31.9-44.2l-4.8-1.2V260h3.3c1.9 0 6.9.9 11.2 2 21 5.4 37.5 22.1 43 43.5 1.9 7.5 1.9 20.2 0 28.4-4.8 20.3-22.6 38.2-43.1 43.5-9.2 2.4-144.5 2.4-153.7 0-20.8-5.4-37.7-22.3-43.1-43.1-1.9-7.1-2.1-19.9-.5-27.5.6-2.9 2.9-9 5.1-13.6 4.8-10.2 14.1-20.1 23.9-25.5 7.1-4 19-7.6 25.2-7.6l3.7-.1v8.8zm55.8-.1-.3 8.8h-42l-.3-8.8-.3-8.7h43.2l-.3 8.7zm56 0-.3 8.8h-42l-.3-8.8-.3-8.7h43.2l-.3 8.7zM162 319.5V347h-2.2c-3.3-.1-9.9-3.3-13.9-6.8-5.9-5.1-8.4-11.4-8.4-20.7 0-7 .4-8.7 3-13.4 3.1-5.6 8.8-10.6 14.8-12.8 7.1-2.6 6.7-4.4 6.7 26.2zm55.8.2-.3 27.8h-42l-.3-27.8-.2-27.7h43l-.2 27.7zm56 0-.3 27.8h-42l-.3-27.8-.2-27.7h43l-.2 27.7zm20.9-25.1c1.8.7 5.2 3.2 7.6 5.7 5.8 5.7 8.1 12.5 7.5 21.6-.5 7.3-2.2 11.2-7.1 16.7-2.9 3.4-11.5 8.4-14.4 8.4-1 0-1.3-6.2-1.3-27.6v-27.5l2.3.7c1.2.3 3.6 1.2 5.4 2z" fill="#000"/></svg>