<svg width="682.667" height="682.667" preserveAspectRatio="xMidYMid meet" version="1.0" viewBox="0 0 512 512"><g fill="#000" stroke="none"><path d="M73.9 1.4C63.5 4.2 54.8 12.2 50.4 22.8 48.3 28 48 30 48 45.1c0 15.4.1 16.7 2 18.4 2.8 2.5 7.6 2.3 10.3-.4 2-2 2.2-3.4 2.7-18.4.4-13.2.8-16.8 2.2-19 2.7-4 5.9-6.7 10.3-8.8 3.8-1.8 10.6-1.9 180.6-1.9h176.5l5.1 2.5c3.2 1.6 6.1 4.1 7.9 6.7l2.9 4.1.3 202.1c.2 141.4 0 203.2-.8 205.8-1.4 4.9-5.3 9.4-10.4 12.1l-4.1 2.2-109.3.5c-106.8.5-109.4.5-110.8 2.4-3 4.2-1.2 9.8 3.7 11.5 2.2.8 25.3 1.1 75.4 1.1h72.3l.4 13.2c.3 12.4.6 13.6 3.3 18.7 3.5 6.3 8.2 10.5 14.4 12.6 11.5 3.9 24.7-.8 30.6-10.9 1.3-2.3 4.2-10.4 6.5-18.1 2.3-7.7 4.5-14.3 4.9-14.7.3-.4 3.7-1.2 7.5-1.7s9.2-2.1 12.1-3.6c6.3-3 13.8-10.8 16.8-17.3l2.2-4.7v-413l-2.7-5.7c-3.4-7.3-10.3-14.2-17.6-17.6L437.5.5 258 .3C116.9.2 77.5.4 73.9 1.4zm334.8 466c-.3.8-2 6.3-3.8 12.3-3.7 12.4-4.2 13.5-8 15.7-5.5 3.3-12.5 1.1-15.3-4.8-1.2-2.5-1.6-6.3-1.6-14V466h14.6c12.3 0 14.5.2 14.1 1.4z"/><path d="M102.5 41.1c-1.7.5-4.9 2.4-7.2 4.4-8 6.8-7.4-9.3-7.1 189.2l.3 177.1 3.1 4.4c1.9 2.5 5.2 5.3 8 6.8l4.8 2.5 148 .3c97.7.1 149.8-.1 153.5-.8 6.4-1.2 11.6-4.5 15.1-9.7l2.5-3.7.3-63.4.2-63.5-2.2-2.4c-2.6-2.8-6.7-3-9.9-.4l-2.4 1.9-.3 61.5c-.3 71.9 1 65-12.6 65.5l-8.1.4.3-68.2c.3-78 .2-79.6-6.8-93.8-4.9-9.8-13.6-19.6-22.1-24.9l-5.9-3.6v-28.1c0-26.9.1-28.2 2-29.3 4.2-2.7 5.5-7.1 5.5-18.8 0-12.1-1.2-15.7-6.8-19.9-2.7-2-4.2-2.1-27.5-2.4-27.7-.3-29.5.1-33.9 6.7-2.1 3.1-2.3 4.6-2.3 15.5 0 10.3.3 12.6 2 15.4 1.1 1.8 2.7 3.5 3.5 3.8 1.3.5 1.5 4.7 1.5 28.8v28.2l-6.4 4.2c-12.4 8.2-22.1 21.5-26.3 36.2-1.7 6-1.8 11.7-1.8 78.3V411h-15v-71.7c0-66.6-.1-72.3-1.8-78.3-4.2-14.7-14.8-29.2-26.8-36.7l-5.9-3.6v-28.2c0-24.2.2-28.4 1.5-28.9.8-.3 2.4-2 3.5-3.8 1.7-2.8 2-5.1 2-15.4 0-10.9-.2-12.4-2.3-15.5-4.4-6.6-6.2-7-33.9-6.7-23.3.3-24.8.4-27.5 2.4-5.6 4.2-6.8 7.8-6.8 19.9 0 11.7 1.3 16.1 5.5 18.8 1.9 1.1 2 2.4 2 29.3v28.1l-5.9 3.6c-8.5 5.3-17.2 15.1-22.1 24.9-7 14.2-7.1 15.8-6.8 93.8l.3 68.2-8.1-.4c-6.3-.2-8.7-.7-10.3-2.2l-2.1-1.9V232.8C103 60.3 103 59 105 57s3.3-2 151-2 149 0 151 2c1.6 1.6 2 3.3 2 9v7h-6.3c-12.7 0-21.4 4.7-26.5 14.4l-2.7 5.1v95l3.1 5.5c3.3 6 9.9 11.2 16.2 13 2 .5 6.5 1 10 1h6.2v23c0 24.3.4 27 4.7 28.9 3.4 1.6 4.7 1.4 7.7-1l2.6-2v-99.7c0-94.8-.1-99.9-1.9-103.8-2.2-4.8-8.2-10.1-13.1-11.4-4.5-1.3-302.3-1.2-306.5.1zM409 140v52h-5.6c-7.1 0-11.8-2.2-13.8-6.5-2.3-4.8-2.4-86-.1-90.9 2.2-4.7 6-6.5 13.3-6.6h6.2v52zm-203 4.5v7.5h-19.9c-11 0-20.2-.4-20.5-.9-.3-.4-.3-3.8.1-7.5l.6-6.6H206v7.5zm140.6-4.4c-.3 1.7-.6 5.1-.6 7.5v4.4h-40v-15h41.3l-.7 3.1zM199 174.5v7.5h-26v-15h26v7.5zm140 0v7.5h-26v-15h26v7.5zm-139.8 36.9c.4 16.9.7 17.6 10.7 24.2 7.7 5.1 12.3 9.5 16.2 15.5 2.5 4 6.9 14.7 6.9 17.1 0 .4-21.1.8-47 .8s-47-.4-47-.8c0-.5.9-3.5 2-6.7 3.8-11 10.4-19.1 21.2-25.9 9.5-6 10.2-7.7 10.6-24.4l.3-14.2h25.8l.3 14.4zm140-.2c.4 16.7 1.1 18.4 10.6 24.4 10.8 6.8 17.4 14.9 21.2 25.9 1.1 3.2 2 6.2 2 6.7 0 .4-21.1.8-47 .8-25.8 0-47-.4-47-.8 0-2.4 4.4-13.1 6.9-17.1 3.9-6 8.3-10.2 16.1-15.4 10.1-6.7 10.4-7.4 10.8-24.3l.3-14.4h25.8l.3 14.2zM233.8 329.7l.2 45.3h-96v-44.8c0-24.7.3-45.2.7-45.5.3-.4 21.8-.6 47.7-.5l47.1.3.3 45.2zm140 0 .2 45.3h-96v-44.8c0-24.7.3-45.2.7-45.5.3-.4 21.8-.6 47.7-.5l47.1.3.3 45.2zm-140 68.3c-.3 6.7-.7 8.3-2.6 10.2l-2.3 2.3h-85.8l-2.3-2.3c-1.9-1.9-2.3-3.5-2.6-10.2l-.4-8h96.4l-.4 8zm140 0c-.3 6.7-.7 8.3-2.6 10.2l-2.3 2.3h-85.8l-2.3-2.3c-1.9-1.9-2.3-3.5-2.6-10.2l-.4-8h96.4l-.4 8z"/><path d="M167.3 294.5c-8.9 1.6-17.3 4.3-19.5 6.3-2.4 2.1-2.4 8.4 0 10.5 2.4 2.2 5.7 2.1 14.5-.4 11.4-3.3 29.5-3.7 42.2-.9 15 3.3 17.3 3.5 19.5 1.5 2.6-2.3 2.7-8.6.3-10.8-2.2-1.9-13.6-5.3-22.3-6.7-8.8-1.3-25.9-1.1-34.7.5zm.7 27.2c-5.2 2-6.8 8.5-3 12.3 1.9 1.9 3.3 2 21 2s19.1-.1 21-2c2.7-2.7 2.6-8.1-.1-10.6-1.9-1.7-4-1.9-19.8-2.1-9.7-.1-18.3.1-19.1.4zm-19.1 24.2c-3.3 2.6-4 5-2.4 8.8 1.1 2.5 2.5 3.5 7.9 5.3 8.6 2.8 22.2 5 31.6 5 13.9 0 34.4-4.4 38.2-8.2 2.8-2.8 2.1-8.5-1.4-11.1l-2.7-2-7.3 2.1c-16.7 4.9-33.7 5.3-49.3 1.1-4.4-1.1-8.9-2.3-10-2.6-1.2-.2-3.2.5-4.6 1.6zm158.4-51.4c-8.9 1.6-17.3 4.3-19.5 6.3-2.5 2.1-2.4 8.4.2 10.7 2.2 2 5 1.8 19-1.5 8.1-1.9 11.4-2.1 22.5-1.7 9 .4 15.2 1.2 20.2 2.6 8.9 2.6 12.5 2.6 14.6.3 2.2-2.5 2.2-8.5 0-10.5-2.2-1.9-13.6-5.3-22.3-6.7-8.8-1.3-25.9-1.1-34.7.5zm.7 27.2c-5.2 2-6.8 8.5-3 12.3 1.9 1.9 3.3 2 21 2s19.1-.1 21-2c2.7-2.7 2.6-8.1-.1-10.6-1.9-1.7-4-1.9-19.8-2.1-9.7-.1-18.3.1-19.1.4zM288.7 346c-3 2.4-3.7 7.3-1.4 10.3 2.8 3.9 24.3 8.7 38.7 8.7 13.9 0 34.4-4.4 38.2-8.2 2.8-2.8 2.1-8.5-1.4-11.1l-2.7-2-7.3 2.1c-16.7 4.9-33.7 5.3-49.3 1.1-4.4-1.1-8.9-2.3-10-2.6-1.2-.2-3.2.5-4.8 1.7zM125.3 80.3c-21 21-21.8 22.3-16.8 27.2 4.9 5 6.2 4.2 27.4-16.9 16.9-16.8 19.4-19.8 19.4-22.5 0-4.3-2.8-7.1-7.2-7.1-3.3 0-5 1.4-22.8 19.3zm23.5 22.5c-31.4 31.3-34.8 35-34.8 38 0 4.2 3 7.2 7.3 7.2 2.9 0 6.5-3.2 38-34.8 37.6-37.7 37.5-37.5 32.2-42.7-5.2-5.3-5-5.4-42.7 32.3zm102.3-32.9c-1.9 1.9-2.9 6.3-3.4 15.3l-.2 4.6L241 86c-7.6-4.6-11.1-5-14.5-1.5-4.9 4.8-2.8 9.1 7 14.5l7.7 4.2-7.9 4.7c-8.9 5.2-10.8 8.3-8.2 12.9.8 1.5 2.7 3.1 4.3 3.7 2.4.8 3.9.4 10.7-3.3l7.9-4.3v6.3c0 10.9 2.4 15.7 8 15.7s8-4.8 8-15.7v-6.3l7.9 4.3c6.8 3.7 8.3 4.1 10.7 3.3 1.6-.6 3.5-2.2 4.3-3.7 2.6-4.6.6-7.7-8.1-12.9l-7.6-4.6 7.4-4.3c9.7-5.5 11.7-9.7 6.9-14.5-3.4-3.5-6.9-3.1-14.5 1.5l-6.5 4-.2-4.8c-.7-13.3-2.6-17.2-8.3-17.2-1.6 0-3.9.9-4.9 1.9z"/><path d="M50 88c-2 2-2 2.9-1.8 176.8l.3 174.7 2.8 5.6c3.2 6.7 10.9 14.2 17.3 17.1 2.5 1.1 7.6 2.4 11.2 2.9 3.7.5 7 1.3 7.3 1.7.4.4 2.6 7 4.9 14.7 2.3 7.7 5.3 15.9 6.6 18.2 7.6 13.1 26.6 16.2 38.5 6.4 1.9-1.6 4.8-5.3 6.4-8.2 2.7-5 3-6.3 3.3-18.6l.4-13.2 20-.3 20-.3 2.4-2.8c2.9-3.4 3-5.6.4-9l-2.1-2.6-54.7-.3c-51.2-.3-54.9-.4-58.2-2.2-4.6-2.4-7.8-5.4-9.8-9.1-1.6-2.7-1.7-17.5-2.2-176.1-.5-168.5-.6-173.2-2.4-175.3-2.5-2.7-7.9-2.8-10.6-.1zm82 388.6c0 12-1.3 15.9-5.9 18.7-3.6 2.1-7.5 2.2-11 .1-3.8-2.2-4.3-3.3-8-15.7-1.8-6-3.5-11.5-3.8-12.3-.4-1.2 1.8-1.4 14.1-1.4H132v10.6z"/></g></svg>