<svg width="682.667" height="682.667" preserveAspectRatio="xMidYMid meet" version="1.0" viewBox="0 0 512 512"><g fill="#000" stroke="none"><path d="M44.5 99.9c-1.1.5-2.8 1.7-3.7 2.8C38.6 105.1 0 194.4 0 197c0 3.3 2.3 7.1 5.1 8.6 2.3 1.1 8.8 1.4 32.9 1.4h30v45H44.8c-12.8 0-25.3.5-27.8 1.1-6.6 1.5-11.5 5.3-14.5 11.2L0 269.4V322c0 36.8.3 53.7 1.1 56.1 1.8 5.3 5.7 9.8 10.5 12.2l4.4 2.1v5.8c0 7 1.9 11.2 6 13.3 3.6 1.9 4.4 1.9 8.5 0 4.1-2 5.5-5.1 5.5-12.5v-6h88v6.5c0 7.7 1.7 10.9 6.5 12.5 2.6.9 4.1.8 7-.4 4.4-1.9 6.5-6.3 6.5-13.8l.1-5.3 5.1-3c4-2.3 5.9-4.2 8-8.4l2.8-5.3v-52.2c0-33.3-.4-53.5-1.1-55.9-1.3-4.7-6-10.2-11.3-13-3.9-2.1-5.6-2.2-31.8-2.5l-27.8-.4V207h62l3-2.8c5.7-5.1 5.8-4.6-15.9-54.7-17.5-40.5-20.3-46.3-23.1-48.3-3.3-2.2-3.7-2.2-35.4-2.1-17.7 0-33 .4-34.1.8zm72.1 52.6c7.9 18.1 14.3 33.3 14.3 33.7.1.5-23.7.8-52.8.8H25.3l13.8-32c7.6-17.6 14.3-32.9 14.9-34 1.1-2 1.9-2 24.7-1.8l23.6.3 14.3 33zm22.9 170v50l-59.7.3-59.8.2v-49.8c0-27.4.3-50.2.7-50.5.3-.4 27.2-.6 59.7-.5l59.1.3v50z"/><path d="M42.5 315.2c-5.6 4.9-4 13.4 3.1 16.4 4.4 1.8 7.8 1 11-2.9 2.2-2.6 2.5-3.8 2.1-7.1-1.1-7.9-10.3-11.5-16.2-6.4zm187.3-189.8c-10.5 3.8-19.1 11.8-23 21.5-2.2 5.5-2.3 6.5-2.6 48.4l-.3 42.7-2.8 1.5c-5.1 2.6-9.1 6.7-11.9 11.9l-2.7 5.1-.3 64.8-.3 64.8 3 2.9 2.9 3H217v7c0 6.3.3 7.3 2.9 10.2 2.4 2.7 3.6 3.3 7.1 3.3 3.5 0 4.7-.6 7.1-3.3 2.6-2.9 2.9-3.9 2.9-10.2v-7l113.3.2 113.2.3.5 7.2c.4 6.2.9 7.7 3.3 10 3.8 3.8 9.6 3.8 13.4 0 2.4-2.4 2.8-3.6 3.1-10.2l.4-7.5h10.9c10 0 11-.2 13.6-2.4l2.8-2.4.3-63.2c.1-39.7-.1-64.5-.8-66.8-1.6-6.1-6.6-13-11.7-16.2l-4.8-3.1-.5-42.7c-.5-41.4-.6-42.9-2.8-48.3-2.5-6.4-8.7-14-14.1-17.3-8.6-5.4-10.6-5.6-50.8-5.6H389l-3.1 2.8c-3.4 3-4.2 7.9-2 12.1 2.4 4.4 3.8 4.6 42.6 5.1 36.8.5 37 .5 40.3 2.8 6.7 4.9 6.7 4.3 7 48.9l.3 40.3H450v-18.3c0-17-.2-18.5-2.4-23.2-2.8-6.2-8.7-11.6-15.2-14.1-4.4-1.7-7.9-1.9-36.9-1.9-17.6 0-33.6.3-35.6.8-2.1.4-5.3 1.9-7.3 3.2l-3.6 2.4-3.6-2.4c-2-1.3-5.2-2.8-7.3-3.2-2-.5-18-.8-35.6-.8-36.2 0-38.1.3-46.1 7.7-7.3 6.7-8.7 11.5-9.2 32l-.4 17.8h-22.9l.3-40.3c.3-44.6.3-44 7-48.9 3.3-2.3 3.5-2.3 40.1-2.8l36.9-.5 2.9-3.3c4.4-4.9 3.4-11.9-2.2-14.8-3.9-2-73.5-2-79.1 0zm106.8 75.9c2.3 2.7 2.4 3.3 2.4 18.8V236h-72v-14.4c0-8.1.5-15.7 1.1-17.6 2-5.7 3.9-6 36.7-5.7l29.4.2 2.4 2.8zm88.3-2.2c1.7.6 3.6 1.9 4.1 2.9.6 1 1 9.1 1 17.9V236h-71v-15.8c0-16.8.6-19.3 5.4-21.2 3.2-1.3 56.7-1.2 60.5.1zm62.4 58.1c4.6 2.4 4.6 2.9 4.7 33V319H206v-28.8c.1-29.9.1-30.5 4.5-33 2.9-1.7 273.7-1.7 276.8 0zm4.7 98.3V372H206v-33h286v16.5z"/><path d="M343.4 125.8c-5.1 4.1-5.7 9.7-1.5 14.4 2.4 2.7 3.6 3.3 7.1 3.3 10 0 13.6-13.5 4.9-18.1-3.7-1.9-7.9-1.7-10.5.4z"/></g></svg>