<?xml version="1.0" standalone="no"?>
<!DOCTYPE svg PUBLIC "-//W3C//DTD SVG 20010904//EN"
 "http://www.w3.org/TR/2001/REC-SVG-20010904/DTD/svg10.dtd">
<svg version="1.0" xmlns="http://www.w3.org/2000/svg"
 width="512.000000pt" height="512.000000pt" viewBox="0 0 512.000000 512.000000"
 preserveAspectRatio="xMidYMid meet">

<g transform="translate(0.000000,512.000000) scale(0.100000,-0.100000)"
fill="#000000" stroke="none">
<path d="M1755 5107 c-97 -33 -167 -94 -212 -185 -25 -50 -28 -68 -28 -152 0
-124 28 -212 96 -315 83 -124 217 -223 380 -280 l76 -26 79 30 c186 72 328
192 401 338 51 101 67 173 61 278 -8 133 -69 230 -181 285 -106 52 -207 50
-319 -6 l-47 -24 -64 31 c-77 36 -179 47 -242 26z m164 -177 c24 -11 59 -34
78 -50 46 -41 77 -39 141 10 117 87 223 78 276 -25 16 -30 21 -58 21 -115 0
-103 -40 -188 -129 -275 -59 -58 -204 -145 -241 -145 -28 0 -143 59 -200 103
-166 126 -227 319 -145 452 39 63 119 81 199 45z"/>
<path d="M662 4003 c-42 -20 -69 -55 -82 -105 -8 -26 -10 -324 -8 -921 4 -979
1 -926 73 -1082 49 -107 110 -181 257 -311 187 -167 248 -231 285 -299 47 -88
54 -155 51 -455 l-3 -265 -75 -7 c-162 -17 -306 -67 -380 -134 -95 -86 -94
-202 3 -286 156 -134 585 -179 885 -92 141 41 219 93 253 169 74 163 -112 311
-431 343 l-75 7 -3 285 c-5 437 -8 429 342 740 166 148 232 241 287 405 23 68
23 83 29 515 l5 445 239 -560 c131 -308 257 -596 280 -640 30 -60 61 -101 126
-165 108 -109 178 -146 450 -236 230 -77 299 -115 362 -199 33 -43 266 -562
256 -569 -2 -2 -35 -22 -75 -45 -207 -122 -324 -281 -291 -397 15 -55 72 -109
138 -128 168 -50 477 33 724 194 191 124 285 264 255 376 -15 51 -74 109 -129
125 -73 22 -220 15 -330 -16 -52 -14 -104 -28 -115 -31 -18 -5 -32 23 -127
248 -59 139 -111 273 -117 298 -24 102 -7 194 61 345 168 374 184 430 175 605
-3 58 -13 130 -22 160 -34 111 -687 1625 -713 1652 -31 34 -84 52 -124 44 -17
-3 -253 -105 -524 -226 -271 -121 -496 -220 -499 -220 -3 0 -5 75 -5 166 0
152 -2 170 -22 205 -14 25 -37 46 -63 59 -40 19 -61 20 -666 20 -555 0 -628
-2 -657 -17z m1238 -527 l0 -375 -33 -25 c-18 -14 -63 -39 -100 -57 -126 -58
-229 -38 -530 105 -187 90 -244 108 -337 107 -41 0 -91 -5 -110 -11 -19 -5
-38 -10 -42 -10 -10 0 -11 624 -1 633 3 4 264 7 580 7 l573 0 0 -374z m1315
112 c59 -139 163 -383 231 -541 l122 -288 -81 -61 c-208 -154 -435 -220 -602
-174 -164 45 -361 170 -546 348 l-76 73 -92 219 c-51 120 -91 219 -89 220 7 5
1013 454 1019 455 3 1 54 -113 114 -251z m-2045 -620 c185 -86 335 -140 420
-153 60 -9 158 10 243 45 l68 29 -3 -402 c-4 -389 -5 -404 -27 -464 -12 -34
-40 -89 -61 -122 -267 -413 -881 -334 -1037 134 l-27 80 0 450 -1 450 45 23
c38 20 57 23 120 19 70 -3 89 -10 260 -89z m2527 -509 c30 -68 63 -157 74
-198 52 -199 -5 -405 -151 -551 -204 -204 -511 -221 -738 -41 -96 76 -128 132
-295 524 -87 201 -157 368 -157 371 0 4 24 -11 53 -33 71 -54 214 -126 312
-157 109 -35 254 -43 361 -19 135 29 308 111 424 199 25 19 49 34 54 32 5 -1
34 -58 63 -127z m-2349 -1029 c-12 -16 -23 -30 -24 -30 -2 0 -12 14 -24 30
l-21 30 46 0 46 0 -23 -30z m2205 -17 c-5 -32 -5 -32 -34 -17 -16 8 -29 17
-29 20 0 5 63 34 66 31 1 -1 -1 -16 -3 -34z m786 -859 c40 -8 40 -27 -4 -80
-98 -119 -349 -251 -553 -290 -85 -16 -160 -18 -182 -4 -38 24 75 143 204 217
l56 32 14 -34 c45 -108 196 -45 157 66 -6 17 -9 35 -6 39 10 16 180 54 261 59
12 0 36 -2 53 -5z m-3099 -199 c0 -48 37 -85 83 -85 49 0 77 26 84 78 5 40 7
42 40 42 89 0 283 -59 314 -96 8 -10 2 -19 -28 -38 -128 -83 -449 -109 -672
-56 -80 19 -181 64 -181 81 0 13 52 45 103 64 65 24 152 43 210 44 l47 1 0
-35z"/>
</g>
</svg>
