<svg width="682.667" height="682.667" preserveAspectRatio="xMidYMid meet" version="1.0" viewBox="0 0 512 512"><path d="M194.5 2c-3.4 1-7.9 3.5-10.2 5.5l-4.1 3.5-5.8-2.8c-5.1-2.3-7.1-2.7-15.4-2.7-8.4 0-10.2.3-15.2 2.8-3.5 1.7-7.8 5.1-11.2 8.8-4.6 4.9-6 7.3-7.9 13.6l-2.3 7.6-4.4 1.2c-10.8 2.8-18.9 9-24 18.7-3 5.6-3.5 7.4-3.8 15.6l-.4 9.4-4.4 4.3c-13.1 13.2-14.4 33.7-2.9 49 1.8 2.4 2 3.5 1.2 5.5-1.7 4.6-1.1 16 1.2 22.2 2.7 7.1 9.8 15.1 16.2 18.4 4.7 2.3 4.9 2.6 4.9 6.7 0 13.3 9.1 27.8 20.7 32.9 8.5 3.8 15.7 4.1 28.6 1.2l2.7-.6V294H99.5c-61.9 0-63.2.1-64.9 4.5-1.7 4.7.7 25.4 5.1 43.5 11.2 46.1 38.6 89 76.3 119.6 22.6 18.2 56 35.5 83 42.8 82.5 22.3 174.3-7 228.5-72.9 25.8-31.3 41.6-65.8 48.6-105.9 3.1-17.9 3.4-23.6 1.1-27.2-1.3-2-3.1-3.3-5.2-3.8-1.8-.3-27-.6-56.1-.6H363v-60.5h10.8c9.8 0 11.2-.3 16-2.8 10.6-5.5 16.4-14 18.6-26.7l1.1-6.9 6.2-3.1c6.9-3.5 12.9-9.5 16.4-16.8 1.9-3.8 2.4-6.3 2.4-13.7 0-8.2-.3-9.7-3.2-15.6-1.8-3.7-3.3-7-3.3-7.3 0-.4 1.4-2.4 3-4.5 7.1-8.7 9-21.8 4.8-32.8-1.6-4.3-3.8-7.5-8.5-12.2-6.3-6.3-6.4-6.4-5.2-9.9 1.8-5.4.7-17.8-2.2-23.7-3.4-7.3-11.2-14.7-18.2-17.3-6.2-2.4-15.8-2.9-21.5-1.3-3.1.9-3.4.8-5.6-2.7-5.8-9-14.4-14.7-24.9-16.5-5.5-.9-7.5-.8-13.2.8-3.6.9-8.9 3.3-11.7 5.2l-5 3.5-5.1-2.2c-10.1-4.4-22.4-3.4-30.8 2.3l-3.5 2.4-4.9-3.9c-6.9-5.3-16.8-8.3-24.9-7.5-3.3.4-7.1.9-8.3 1.3-1.6.4-2.3.1-2.8-1.6-1.2-3.7-11.7-13.5-17.7-16.4C214-.2 203-.8 194.5 2zM215 18.2c6 3.1 9.7 8.1 11 14.8 1.1 5.9 4.4 10 8.1 10 1.1 0 4.5-1.4 7.6-3 16.4-8.8 34.4 4.5 30.4 22.6-1.2 5.4-1.2 5.4-5.1 5.4-9.6 0-24.4 7.6-27 14-1.6 3.7-.3 7.1 3.4 9.6 3.2 2 6.1 1.4 11-2.5 7.7-6.1 17.4-6.7 24.8-1.5 11 7.7 11.2 25.2.5 32.3-10.6 7.1-11.2 10-3.3 17.5 2.9 2.8 6.1 6.7 7.1 8.6 3.9 7.6 1.2 19.2-5.7 24.3-4.2 3-5.9 3.7-13.1 4.7-9.4 1.4-11.6 4.6-9.2 13.6 2.7 10.5-1.6 20.3-11 24.5-7.2 3.3-14.9 2.3-20.8-2.7-6.4-5.3-11.2-5-15.7 1.1-10.1 13.7-28.7 11.6-35.6-4.1-3.3-7.5-8.4-8.6-15-3.3-5.4 4.4-9.5 5.9-15.6 5.9-9.4-.1-17.1-5.3-19.8-13.6-1.2-3.4-1-7.1.5-15.4.9-4.7-2.1-8.6-7.8-10.1-10-2.6-16-9.9-16-19.4 0-5.8 1.8-9.7 6.5-14.2 7.2-6.9 14.4-7.9 24.9-3.3 6.2 2.8 7.2 3 9.7 1.8 4.1-2 5.6-5.9 3.8-10.1-1.1-2.8-2.8-4.2-8.2-6.8-6.3-3.1-7.6-3.4-16.4-3.4-10 0-13.9 1.3-21.6 7-2.9 2.2-3.1 2.3-4.2.4-2.2-3.5-3.1-10.2-2.1-14.8 1.3-5.9 4-9.5 10.7-13.9 6.9-4.6 7.8-7.1 5-14.4-4.9-12.9 5.2-26.9 19.4-26.8 8.7.1 17.4 6.6 19.9 15.1 1.5 4.7 4.1 6.9 8.5 6.9 3.7 0 7.4-3.8 7.4-7.4 0-3.8-5.8-14.5-10.3-18.9-2.5-2.4-6.3-5.1-8.6-6.2-3.9-1.7-4.1-2.1-3.5-4.9 3.4-16.4 22.8-22.1 34.4-10.1 4.6 4.7 9.1 4.8 12.9.4 5.4-6.5 9.3-9.9 12.4-10.8 5.6-1.6 11.1-1.2 15.7 1.1zm138.5 18.7C360 39.8 365 47.3 365 54.2c0 2.1 4.6 5.8 7.3 5.8 1.2 0 3.8-1.2 5.9-2.6 4.1-2.9 10.6-4 16.2-3 9.4 1.8 15.9 13.8 12.5 23.3-.9 2.9-1.4 3.1-6.7 3.5-7.1.5-13.7 3.6-19.1 9-5.7 5.9-5.4 11 1 14.3 3.5 1.9 6.3 1.3 9.9-2.1 2.9-2.7 9-5.4 12.2-5.4 13.6 0 23.3 13.7 18.2 25.8-1.7 4.2-6.1 9.2-8.1 9.2-2.4 0-6.3 5.1-6.3 8.3 0 2.3 1.2 4.1 5.4 8.1 6.7 6.3 7.9 8.6 7.9 15.1 0 10.3-6.3 16.8-17.6 18.1-3.5.4-6.4 1.4-7.8 2.7-2.2 2.1-2.2 1.9-.3 13.9 1.1 7-3.7 15.7-10.3 18.4-5.2 2.2-12.2 1.7-16.8-1.1-10.5-6.5-13.2-6.4-18.1.1-5.3 6.9-14.8 9.2-23 5.5-4-1.8-9.4-7.6-9.4-10 0-.7-1.1-2.3-2.5-3.6-3.7-3.8-7.7-3.3-12.9 1.5-4.9 4.6-10.1 7-14.8 7-4 0-10.6-3-13.2-5.9-1.7-1.8-1.7-2.5-.7-4.8.7-1.5 1.5-5.8 1.8-9.5.4-4.9 1-6.8 2-6.8 2.9 0 11.8-5.4 16.2-9.8 12.1-12.1 14.2-29.8 5.3-44.2l-2.8-4.5 3.8-5c11.3-14.8 9.7-35.7-3.6-48.3-2.8-2.7-5.7-5.1-6.5-5.3-1-.4-1-1.6.3-6.5 1.6-6.3 1.1-10.5-2-16.6-1.4-2.7-1.3-2.8 2.6-5.4 7.8-5.2 16.9-4.2 23.9 2.7 5.6 5.4 9.8 5.4 13.8.2 8.1-10.7 15.7-13.6 24.8-9.4zm-89.6 186.5c7.3 6.9 21 10.2 30.4 7.3l4.7-1.5V294h-74v-67l2.8 1.1c7.4 3 23.3.3 30.2-5.1 3.1-2.5 2.9-2.5 5.9.4zM192.1 234c3.7 0 8.6-.7 10.9-1.5 2.3-.8 4.6-1.5 5.1-1.5s.9 14.2.9 31.5V294h-35v-64.8l5.8 2.4c4 1.6 7.7 2.4 12.3 2.4zm130.8 3.6c5.7 1.8 13.5 1.8 19.4 0l4.7-1.4V294h-32v-29.6c0-27.8.1-29.6 1.8-28.9.9.4 3.7 1.4 6.1 2.1zm23.6 76.5c-2.2 6.2-1.9 13.6.9 19.5 2.5 5.4 6.6 9.1 15.7 14.2 8.5 4.8 8.4 4.5 5.3 16.3-2.9 11.4-2.8 16.2.6 22.8 4.2 8.3 15 15.5 29.5 19.6 8 2.3 12.7 4.8 15.9 8.6l2.6 3.1-4 4.8c-7.4 8.8-27.5 27.5-36.8 34-8 5.7-28.7 18-30.2 18-.3 0-1.6-3.3-2.9-7.3-5.5-17.2-13.1-29.6-20.5-33.1-1.8-.8-7.2-2-11.9-2.5-10.1-1.2-12.9-2.4-18.4-8.4-5-5.5-7.8-12.7-10.8-28.6-4.3-22.3-8.2-31.9-16.1-39.8-6.9-6.8-14.1-9.8-23.9-9.7-9.4.1-13.9 1.8-23 8.7-5.5 4.1-10.2 9.5-24.8 28.3-14.6 18.7-29.4 21.6-47.3 9.3-2.5-1.7-10-8.1-16.7-14.2-22.8-20.7-38.4-28-64.3-30.2l-8.1-.7-2.7-11.7c-1.4-6.4-3-14.6-3.4-18.4l-.8-6.7h297.5l-1.4 4.1zm114.5-.5c0 5.5-4.6 27.2-8.1 38.2-4.1 12.7-11.2 28.6-18.2 40.3-8.6 14.5-7.6 13.7-12.8 9.8-5-3.8-12.2-7.3-24.7-12-10.6-3.9-15.2-8.1-15.2-13.5 0-2.2.7-6.6 1.5-9.9 3.9-16.3-.3-25.8-14.4-33-10.5-5.3-11.8-12.8-3.9-21.3l2.1-2.2H461v3.6zm-211.3 49.5c4.2 1.6 8.2 5.8 11.3 11.9 3.1 6.2 4.3 11 6.5 25.5 2.8 17.9 6.7 28 14.3 36.5 5.4 6.2 12 9.5 23.7 12.1 5.5 1.1 10.8 2.5 11.8 3 .9.6 3 3.5 4.6 6.7 4 7.9 9.3 23.4 8.4 24.3-1.3 1.2-20.3 6.8-30.3 8.8-16.9 3.4-29.3 4.4-49.5 3.8-13-.4-22.5-1.2-30-2.6-45.1-8.6-83.2-28.8-113.7-60.6-17-17.7-31.7-40.2-41.8-63.9l-2-4.8 5.6.7c12.3 1.5 24.4 6 33.9 12.5 2.5 1.7 11 8.6 18.8 15.2 7.8 6.7 16.8 13.9 20.1 15.9 15.3 10 30.1 11.3 44.6 3.9 7.9-4.1 12.9-8.7 24.3-22.9 12.6-15.6 18.8-21.7 25.2-24.7 5.4-2.6 9.8-3 14.2-1.3z" fill="#000"/></svg>