<svg width="682.667" height="682.667" preserveAspectRatio="xMidYMid meet" version="1.0" viewBox="0 0 512 512"><g fill="#000" stroke="none"><path d="M127 32.7c-20.7 3.2-36.3 17-41.4 36.8-.9 3.2-1.6 6.8-1.6 8 0 1.3-1.5 3-4.3 4.7-5.9 3.8-17 14.9-21.8 22-5.6 8.2-10.5 18.8-13 28.3-2.4 8.9-3.1 29.7-1.2 37 .9 3.9.8 4.3-2.8 8.3-4.5 5.2-6.4 11.9-5.6 20.8.9 11.2 7.8 19.5 17.7 21.2l4.3.7 2.2 7c3 9.3 5 13.8 9.2 20.4 4.2 6.6 14.3 17.3 19 20.2 3.2 2 3.3 2.3 3.3 8.5 0 4.4-.4 6.4-1.2 6.4-.7 0-6.2 4.9-12.3 10.9l-11 10.9-20.4 8.8c-12.1 5.2-22.8 10.5-26.1 13C9.9 334 2.5 346.7.8 359.4c-.7 5.1-.3 22.1 1.4 61.5l2.4 54.3 2.7 2.4c3.4 2.9 5.6 3 9.1.3 2.4-1.9 2.6-2.6 2.6-10.3 0-4.5-.9-29.1-2.1-54.6-1.1-25.6-1.8-48.8-1.4-51.5.3-2.8 1.4-6.8 2.3-8.9l1.8-4 10 12c20 23.7 18.7 18.9 19.4 72.2l.5 43.4 2.4 1.9c3.2 2.6 6.7 2.4 9.7-.6l2.5-2.5-.4-43.8c-.4-47.9-.3-47-6.7-59.1-1.7-3.2-8.5-12.3-15.1-20.2L30 337.5l4.4-2.2c2.4-1.2 10.8-5 18.7-8.4 14.1-6.2 14.2-6.2 15.8-4.2.9 1.2 6.5 10 12.4 19.7 6 9.7 12 18.4 13.5 19.4 1.6 1 4.6 1.7 7.7 1.7 5.4 0 7.2-1.1 19.8-11.6l3.7-3.1v61.5c0 40.3.4 62.4 1 64.4 1 2.8 4.5 5.3 7.4 5.3.7 0 2.5-.9 4-2.1l2.6-2v-63.5c0-34.9.3-63.4.6-63.4s3.8 2.8 7.7 6.1c10.2 8.8 15.5 10.6 21.6 7.4 4.1-2.1 6.4-5.2 18.1-24.3 5.8-9.4 10.9-17.2 11.3-17.2 1.3 0 33 14 35.1 15.5 1.7 1.3 1.1 2.2-9 14.5-12.2 14.6-17.7 23.1-20 30.5-2.8 9.2-3.5 22.1-3.2 58l.3 35.7 2.8 2.4c3.5 3 5.9 3 9.4 0l2.8-2.4.5-43.4c.6-48.1.4-46.7 7.8-57.2 5.7-8.2 20.5-25.5 21.3-25 .4.2 1.5 2.8 2.5 5.6 2.1 6.4 2.1 12.5-.6 72.6-1.3 29.7-1.6 46.1-1 47.7 1.1 2.9 5.4 4.9 8.7 4 5.1-1.3 5.2-1.5 7.6-58.5 1.5-34.2 2-56.1 1.5-60.9-1.6-15.3-11.8-30.2-25.6-37.4-3.7-2-14.1-6.7-23.2-10.7l-16.5-7.1-10.5-10.3c-5.8-5.7-11.5-10.9-12.7-11.5-2-1-2.3-2-2.3-6.5v-5.4l6.9-5.6c13.2-10.6 22.9-26.3 26.5-42.9.5-2.2 1.2-2.7 3.6-2.7 4.1 0 7.2-1.4 11.6-5.2 5.4-4.8 7.7-10.7 7.7-19.8 0-8.5-1.5-12.9-6.2-18.2-3-3.5-3.1-3.6-2-9.4 1.4-7.6.6-28.2-1.4-35.4-5.6-20.1-18.3-38.5-33.9-49.2-5.1-3.4-5.8-4.3-5.8-7.2 0-4.7-2.7-13.1-6.2-19.2-8.9-15.9-31.4-26.6-49.8-23.7zm21.4 17.6c7 3.2 13.2 8.9 16.2 14.9 1.3 2.6 2.4 4.9 2.4 5.1 0 .2-3.9-.7-8.7-2-16.3-4.3-36.2-4.1-51.5.7-3.2 1-5.8 1.4-5.8.9 0-.6.9-2.6 1.9-4.7 8.1-15.6 29-22.4 45.5-14.9zm.4 31.3C165.6 85 177.9 91.7 190 104c13.3 13.6 20.1 30.1 19.9 48.9 0 5.3-.3 11.4-.7 13.6-.7 3.6-1 4-4.1 4.3-2.5.3-4-.3-6-2.1-4.7-4.4-6.7-4.9-22-5.2-37.2-.8-65.2-10.5-82.6-28.5-6-6.2-8.8-7.5-12.6-6-3.1 1.3-5.4 5.9-4.5 8.8 1.1 3.3 14 15.2 22.5 20.8 10.5 6.8 26.1 12.9 40.9 16 12.4 2.5 37.4 4.9 42.8 4.1 2.7-.5 4.2.2 8.9 3.9 6.1 4.7 7.7 5 13.9 3.3 5.6-1.5 8.5-.5 10.3 3.8 1.7 4.3 1.1 10.8-1.4 13.5-.9 1-2.9 1.8-4.5 1.8-3.9 0-8.8 2.2-11.6 5.3-1.3 1.4-3.4 6.2-4.7 10.6-3.6 12.3-7.9 19.6-17 28.6-8.9 9-16.5 13.5-27.5 16.6-8.6 2.3-22.8 2.5-31.1.4-22.5-5.9-39.7-22.9-45.7-45.4-1.1-3.9-2.7-8.2-3.6-9.7-1.9-2.9-8.7-6.3-12.6-6.4-4.8-.1-7-3.4-7-10.5 0-3.6.6-5.1 2.5-7.1 3-3 5-2.6 10.9 1.7 4.7 3.4 7.9 3.6 12.1 1 7.1-4.5 14.5-12.9 14.5-16.3 0-1.1-1.4-3.3-3-5-3.9-3.8-6.9-3.3-12.6 2.3-4 3.9-4.1 4-7 2.4-1.6-.8-4.1-2-5.6-2.5-3.3-1.1-4.4-6.1-4.2-20.5.3-17.1 6.7-32.4 19.2-45.7 18.9-20 45.7-28.6 72-23.2zM115.5 281c5.4 1.4 11.1 2 18.5 2s13.1-.6 18.5-2c4.3-1.1 8-2 8.2-2 .1 0 .3 3.5.3 7.8v7.7L147.5 308 134 321.5l-14-14-14-14v-7.2c0-4 .4-7.3.8-7.3.5 0 4.4.9 8.7 2zm-8.1 34.9c8.2 8.2 14.7 15.3 14.5 15.9-.6 1.6-18.2 16.3-19.2 15.9-.4-.1-5.7-8.1-11.6-17.7l-10.9-17.5 5.6-5.8c3.1-3.1 5.9-5.7 6.2-5.7.3 0 7.2 6.7 15.4 14.9zm74.5-9.5c2.9 3 5.2 5.8 5 6.4-1.1 2.7-21.5 35.2-22.2 35.2-.4 0-5.1-3.7-10.3-8.2l-9.5-8.2 15.3-15.3c8.4-8.4 15.5-15.3 15.8-15.3.3 0 3 2.4 5.9 5.4z"/><path d="M349.5 33c-14.9 1.7-34 8.8-44.8 16.6-2.8 2.1-7.6 4.3-10.7 5.1-15.7 4.1-26 16.8-27.9 34.6-.9 8.6.2 26.9 2.4 39.7l1.8 10-4 3.8c-2.3 2-4.9 5.5-5.8 7.7-2.3 5.3-2.4 18.6-.2 23.6 3.2 7.2 11 12.9 17.5 12.9 2.7 0 3.1.4 4.7 6.2 2.4 9 7.8 19.7 13.5 27.2 5 6.5 5 6.6 5 14 0 6.8-.2 7.6-2.2 8.7-1.3.6-7.2 6-13.3 11.9l-11 10.8-20 7.7C224.6 285 221 287.1 221 292.9c0 3.5 3.8 7.1 7.4 7.1 1.6 0 4.3-.9 6-1.9 3.4-2.1 42.5-17.5 43-17 .2.2 7.2 10.7 15.6 23.2 12.5 18.9 16 23.4 19.7 25.8 5.8 3.6 11.4 4.4 17.7 2.5l4.8-1.5-.5 5.7c-.3 3.1-1.8 35.6-3.4 72.1l-2.8 66.3 2.8 2.4c3.2 2.7 4.5 2.9 8.2 1.2 1.6-.7 2.9-2.4 3.5-4.7.7-2.9 6.1-117.4 6-128.9V342h8c7.6 0 8 .1 8 2.2 0 1.3 1.4 31.3 2.9 66.8l2.9 64.5 2.7 2.2c1.4 1.3 3.2 2.3 4 2.3 2.9 0 6.4-2.4 7.3-4.9.6-1.7-.1-25.5-1.9-65.6-1.6-34.7-2.8-66.5-2.9-70.8 0-7.7 0-7.8 2.2-6.6 3.7 2 12.8 1.6 17.3-.8 5.5-2.9 6.4-4 22.5-28.3 7.9-11.8 14.4-21.7 14.6-21.9.5-.5 37.5 13.8 42.6 16.6 2.6 1.4 5.7 3.6 6.9 4.9l2.3 2.4-15.6 15.8c-16.9 17.1-20.1 21.6-22.9 32.4-1.8 6.6-1.9 11.7-1.9 64.5v57.4l2.5 2.4c2.9 3 6.4 3.2 9.6.6l2.4-1.9.5-59.4.5-59.3 3.2-6.5c2.5-5.1 6.1-9.4 16.2-19.4l12.9-12.9.7 3.4c.4 1.9-.7 36.7-2.4 77.2-2 48.3-2.7 74.6-2.1 76.3 1.9 4.9 9.6 5.5 12.5 1 2.3-3.4 8.3-146.7 6.6-157-2.3-13.7-11.6-27.4-23.2-34.3-3-1.7-15.1-6.8-26.9-11.3l-21.5-8.2-11.5-11.4c-6.3-6.3-12.1-11.4-12.8-11.4-.8 0-1.2-2.4-1.2-8.5v-8.6l4.9-6.3c5.6-7.4 9.5-15.2 12.6-25.1l2.2-7 4.3-.7c10.1-1.7 16.9-10.1 17.8-21.6.5-7.7-.8-13.4-4.2-18.4-2.2-3.3-2.3-3.9-1.3-9.4 1.8-10.5 1.4-35.9-.6-44.8-4.1-17.1-10.4-28.4-22.1-39.3-17.6-16.4-46.8-24-78.1-20.3zM388 49.5c12.5 2.8 23.1 8.4 30.9 16.2 7.7 7.7 11.9 15.1 15.3 27 2 6.7 2.3 10 2.2 23.8-.1 18.3-.9 21.8-5.1 21.3-2.3-.3-3.2-1.5-6.8-9.8-5.2-12.3-5.5-12.5-20-9.8-16.5 3.1-43.7 3-56 0-12.5-3.2-22.2-8.2-30.6-16-5.3-4.9-7.8-6.5-10-6.5-4.1 0-6.9 2.9-6.9 7.2 0 3.1.9 4.4 7.3 10.6 18.8 18.4 51.4 26.1 89.2 21 13.2-1.8 13.5-1.8 13.5-.5 0 .6 1.6 4.4 3.5 8.4 4.2 9 7.2 10.8 16.6 10.4 5.4-.2 6.4.1 8 2.1 3.2 3.9 2.2 13.8-1.5 16.3-.6.4-2.2.8-3.6.8-3.9.1-10.7 3.5-12.6 6.4-.9 1.5-2.5 5.8-3.6 9.7-7.5 28.2-31.7 47.1-60.3 47.1-29.2.1-54-19.2-61.1-47.6-.9-3.7-2.6-7.8-3.7-9.3-2.4-3-9-6.2-12.8-6.3-5.4 0-8.5-8.3-5.5-15.3 1.3-3.3 1.9-3.7 5.2-3.7 2.6 0 4.6.8 7.1 3 6.1 5.4 12.2 3.4 22.1-7.3 5-5.5 5.5-9.4 1.7-13.2-3.5-3.6-5.9-3.1-11.4 2-2.6 2.5-5.1 4.5-5.5 4.5-.3 0-2.4-1.1-4.5-2.4-3.8-2.4-3.9-2.8-5.6-11.8-2.2-11.8-3.3-30.6-2.3-38.1 1.6-12.1 8.1-19.2 19.3-21.1 2.3-.4 7.5-3.1 12-6.1 11.8-7.8 24.2-12.6 37.7-14.5 8.9-1.3 28.9-.4 37.8 1.5zm-56.8 196.4c8.3 3 16.1 4.3 26.6 4.2 13.5 0 23.8-2.6 35.3-8.7 2.6-1.3 4.9-2.4 5.3-2.4.3 0 .6 3.1.6 6.8v6.9l-18.1 15.8c-9.9 8.7-19.4 16.9-21 18.2l-2.9 2.5-20.4-17.9-20.5-17.8-.1-7.3V239l5 2.5c2.7 1.4 7.3 3.4 10.2 4.4zm-7.2 34.3 22.1 19.2-8.8 8.9c-4.9 4.8-9.6 9.3-10.5 9.8-4.3 2.3-6.2.3-21.9-23.2l-15.3-23 5.4-5.4c3-3 5.8-5.5 6.2-5.5.4 0 10.7 8.6 22.8 19.2zm94.7-14c2.9 2.9 5.3 5.6 5.3 6 0 .5-6.7 10.9-15 23.3-15.4 23.1-17.3 25.1-21.7 22.7-1-.6-5.7-5-10.5-9.9l-8.7-8.8 22.1-19.3c12.2-10.5 22.4-19.2 22.7-19.2.3 0 2.9 2.3 5.8 5.2zm-58 47c2.9 2.8 3.3 3.8 3.3 8.5v5.3h-14v-5c0-4.1.5-5.5 3.1-8.5 1.7-1.9 3.4-3.5 3.7-3.5.3 0 2.1 1.4 3.9 3.2z"/><path d="M282 364c-2.7 2.7-2.6 8.1.1 10.6 1.9 1.7 3.8 1.9 18.9 1.9 15.1 0 17-.2 18.9-1.9 2.7-2.5 2.8-7.9.1-10.6-1.8-1.8-3.3-2-19-2s-17.2.2-19 2zM80.7 396.1c-2.8 1.6-4 5.8-2.7 9 1.8 4.2 5.4 5.1 19 4.7 11.4-.3 12.3-.5 14.1-2.7 2.6-3.2 2.4-7.3-.4-9.9-2.1-2-3.3-2.2-15.3-2.2-7.1 0-13.7.5-14.7 1.1z"/></g></svg>