<?xml version="1.0" standalone="no"?>
<!DOCTYPE svg PUBLIC "-//W3C//DTD SVG 20010904//EN"
 "http://www.w3.org/TR/2001/REC-SVG-20010904/DTD/svg10.dtd">
<svg version="1.0" xmlns="http://www.w3.org/2000/svg"
 width="512.000000pt" height="512.000000pt" viewBox="0 0 512.000000 512.000000"
 preserveAspectRatio="xMidYMid meet">

<g transform="translate(0.000000,512.000000) scale(0.100000,-0.100000)"
fill="#000000" stroke="none">
<path d="M739 5106 c-104 -28 -191 -108 -235 -214 -21 -52 -24 -72 -24 -223 0
-154 1 -167 20 -184 28 -25 76 -23 103 4 20 20 22 34 27 184 4 132 8 168 22
190 27 40 59 67 103 88 38 18 106 19 1806 19 l1765 0 51 -25 c32 -16 61 -41
79 -67 l29 -41 3 -2021 c2 -1414 0 -2032 -8 -2058 -14 -49 -53 -94 -104 -121
l-41 -22 -1093 -5 c-1068 -5 -1094 -5 -1108 -24 -30 -42 -12 -98 37 -115 22
-8 253 -11 754 -11 l723 0 4 -132 c3 -124 6 -136 33 -187 35 -63 82 -105 144
-126 115 -39 247 8 306 109 13 23 42 104 65 181 23 77 45 143 49 147 3 4 37
12 75 17 38 5 92 21 121 36 63 30 138 108 168 173 l22 47 0 2065 0 2065 -27
57 c-34 73 -103 142 -176 176 l-57 27 -1795 2 c-1411 1 -1805 -1 -1841 -11z
m3348 -4660 c-3 -8 -20 -63 -38 -123 -37 -124 -42 -135 -80 -157 -55 -33 -125
-11 -153 48 -12 25 -16 63 -16 140 l0 106 146 0 c123 0 145 -2 141 -14z"/>
<path d="M1025 4709 c-17 -5 -49 -24 -72 -44 -80 -68 -74 93 -71 -1892 l3
-1771 31 -44 c19 -25 52 -53 80 -68 l48 -25 1480 -3 c977 -1 1498 1 1535 8 64
12 116 45 151 97 l25 37 3 634 2 635 -22 24 c-26 28 -67 30 -99 4 l-24 -19 -3
-615 c-3 -719 10 -650 -126 -655 l-81 -4 3 682 c3 780 2 796 -68 938 -49 98
-136 196 -221 249 l-59 36 0 281 c0 269 1 282 20 293 42 27 55 71 55 188 0
121 -12 157 -68 199 -27 20 -42 21 -275 24 -277 3 -295 -1 -339 -67 -21 -31
-23 -46 -23 -155 0 -103 3 -126 20 -154 11 -18 27 -35 35 -38 13 -5 15 -47 15
-288 l0 -282 -64 -42 c-124 -82 -221 -215 -263 -362 -17 -60 -18 -117 -18
-783 l0 -717 -75 0 -75 0 0 717 c0 666 -1 723 -18 783 -42 147 -148 292 -268
367 l-59 36 0 282 c0 242 2 284 15 289 8 3 24 20 35 38 17 28 20 51 20 154 0
109 -2 124 -23 155 -44 66 -62 70 -339 67 -233 -3 -248 -4 -275 -24 -56 -42
-68 -78 -68 -199 0 -117 13 -161 55 -188 19 -11 20 -24 20 -293 l0 -281 -59
-36 c-85 -53 -172 -151 -221 -249 -70 -142 -71 -158 -68 -938 l3 -682 -81 4
c-63 2 -87 7 -103 22 l-21 19 0 1739 c0 1725 0 1738 20 1758 20 20 33 20 1510
20 1477 0 1490 0 1510 -20 16 -16 20 -33 20 -90 l0 -70 -63 0 c-127 0 -214
-47 -265 -144 l-27 -51 0 -475 0 -475 31 -55 c33 -60 99 -112 162 -130 20 -5
65 -10 100 -10 l62 0 0 -230 c0 -243 4 -270 47 -289 34 -16 47 -14 77 10 l26
20 0 997 c0 948 -1 999 -19 1038 -22 48 -82 101 -131 114 -45 13 -3023 12
-3065 -1z m3065 -989 l0 -520 -56 0 c-71 0 -118 22 -138 65 -23 48 -24 860 -1
909 22 47 60 65 133 66 l62 0 0 -520z m-2030 -45 l0 -75 -199 0 c-110 0 -202
4 -205 9 -3 4 -3 38 1 75 l6 66 198 0 199 0 0 -75z m1406 44 c-3 -17 -6 -51
-6 -75 l0 -44 -200 0 -200 0 0 75 0 75 206 0 207 0 -7 -31z m-1476 -344 l0
-75 -130 0 -130 0 0 75 0 75 130 0 130 0 0 -75z m1400 0 l0 -75 -130 0 -130 0
0 75 0 75 130 0 130 0 0 -75z m-1398 -369 c4 -169 7 -176 107 -242 77 -51 123
-95 162 -155 25 -40 69 -147 69 -171 0 -4 -211 -8 -470 -8 -259 0 -470 4 -470
8 0 5 9 35 20 67 38 110 104 191 212 259 95 60 102 77 106 244 l3 142 129 0
129 0 3 -144z m1400 2 c4 -167 11 -184 106 -244 108 -68 174 -149 212 -259 11
-32 20 -62 20 -67 0 -4 -211 -8 -470 -8 -258 0 -470 4 -470 8 0 24 44 131 69
171 39 60 83 102 161 154 101 67 104 74 108 243 l3 144 129 0 129 0 3 -142z
m-1054 -1185 l2 -453 -480 0 -480 0 0 448 c0 247 3 452 7 455 3 4 218 6 477 5
l471 -3 3 -452z m1400 0 l2 -453 -480 0 -480 0 0 448 c0 247 3 452 7 455 3 4
218 6 477 5 l471 -3 3 -452z m-1400 -683 c-3 -67 -7 -83 -26 -102 l-23 -23
-429 0 -429 0 -23 23 c-19 19 -23 35 -26 102 l-4 80 482 0 482 0 -4 -80z
m1400 0 c-3 -67 -7 -83 -26 -102 l-23 -23 -429 0 -429 0 -23 23 c-19 19 -23
35 -26 102 l-4 80 482 0 482 0 -4 -80z"/>
<path d="M1673 2175 c-89 -16 -173 -43 -195 -63 -24 -21 -24 -84 0 -105 24
-22 57 -21 145 4 114 33 295 37 422 9 150 -33 173 -35 195 -15 26 23 27 86 3
108 -22 19 -136 53 -223 67 -88 13 -259 11 -347 -5z"/>
<path d="M1680 1903 c-52 -20 -68 -85 -30 -123 19 -19 33 -20 210 -20 177 0
191 1 210 20 27 27 26 81 -1 106 -19 17 -40 19 -198 21 -97 1 -183 -1 -191 -4z"/>
<path d="M1489 1661 c-33 -26 -40 -50 -24 -88 11 -25 25 -35 79 -53 86 -28
222 -50 316 -50 139 0 344 44 382 82 28 28 21 85 -14 111 l-27 20 -73 -21
c-167 -49 -337 -53 -493 -11 -44 11 -89 23 -100 26 -12 2 -32 -5 -46 -16z"/>
<path d="M3073 2175 c-89 -16 -173 -43 -195 -63 -25 -21 -24 -84 2 -107 22
-20 50 -18 190 15 81 19 114 21 225 17 90 -4 152 -12 202 -26 89 -26 125 -26
146 -3 22 25 22 85 0 105 -22 19 -136 53 -223 67 -88 13 -259 11 -347 -5z"/>
<path d="M3080 1903 c-52 -20 -68 -85 -30 -123 19 -19 33 -20 210 -20 177 0
191 1 210 20 27 27 26 81 -1 106 -19 17 -40 19 -198 21 -97 1 -183 -1 -191 -4z"/>
<path d="M2887 1660 c-30 -24 -37 -73 -14 -103 28 -39 243 -87 387 -87 139 0
344 44 382 82 28 28 21 85 -14 111 l-27 20 -73 -21 c-167 -49 -337 -53 -493
-11 -44 11 -89 23 -100 26 -12 2 -32 -5 -48 -17z"/>
<path d="M1253 4317 c-210 -210 -218 -223 -168 -272 49 -50 62 -42 274 169
169 168 194 198 194 225 0 43 -28 71 -72 71 -33 0 -50 -14 -228 -193z"/>
<path d="M1488 4092 c-314 -313 -348 -350 -348 -380 0 -42 30 -72 73 -72 29 0
65 32 380 348 376 377 375 375 322 427 -52 53 -50 54 -427 -323z"/>
<path d="M2511 4421 c-19 -19 -29 -63 -34 -153 l-2 -46 -65 38 c-76 46 -111
50 -145 15 -49 -48 -28 -91 70 -145 l77 -42 -79 -47 c-89 -52 -108 -83 -82
-129 8 -15 27 -31 43 -37 24 -8 39 -4 107 33 l79 43 0 -63 c0 -109 24 -157 80
-157 56 0 80 48 80 157 l0 63 79 -43 c68 -37 83 -41 107 -33 16 6 35 22 43 37
26 46 6 77 -81 129 l-76 46 74 43 c97 55 117 97 69 145 -34 35 -69 31 -145
-15 l-65 -40 -2 48 c-7 133 -26 172 -83 172 -16 0 -39 -9 -49 -19z"/>
<path d="M500 4240 c-20 -20 -20 -29 -18 -1768 l3 -1747 28 -56 c32 -67 109
-142 173 -171 25 -11 76 -24 112 -29 37 -5 70 -13 73 -17 4 -4 26 -70 49 -147
23 -77 53 -159 66 -182 76 -131 266 -162 385 -64 19 16 48 53 64 82 27 50 30
63 33 186 l4 132 200 3 200 3 24 28 c29 34 30 56 4 90 l-21 26 -547 3 c-512 3
-549 4 -582 22 -46 24 -78 54 -98 91 -16 27 -17 175 -22 1761 -5 1685 -6 1732
-24 1753 -25 27 -79 28 -106 1z m820 -3886 c0 -120 -13 -159 -59 -187 -36 -21
-75 -22 -110 -1 -38 22 -43 33 -80 157 -18 60 -35 115 -38 123 -4 12 18 14
141 14 l146 0 0 -106z"/>
</g>
</svg>
