<?xml version="1.0" standalone="no"?>
<!DOCTYPE svg PUBLIC "-//W3C//DTD SVG 20010904//EN"
 "http://www.w3.org/TR/2001/REC-SVG-20010904/DTD/svg10.dtd">
<svg version="1.0" xmlns="http://www.w3.org/2000/svg"
 width="512.000000pt" height="512.000000pt" viewBox="0 0 512.000000 512.000000"
 preserveAspectRatio="xMidYMid meet">

<g transform="translate(0.000000,512.000000) scale(0.100000,-0.100000)"
fill="#000000" stroke="none">
<path d="M4845 3894 c-325 -284 -721 -491 -1140 -595 -204 -51 -358 -70 -607
-76 l-228 -6 0 117 0 116 48 0 c38 0 53 5 70 23 30 32 28 71 -4 96 -24 19 -40
21 -185 21 -146 0 -161 -2 -179 -20 -11 -11 -20 -33 -20 -50 0 -46 31 -70 90
-70 l50 0 0 -115 0 -115 -215 0 -215 0 0 115 0 115 50 0 c59 0 90 24 90 70 0
17 -9 39 -20 50 -18 18 -33 20 -185 20 -152 0 -167 -2 -185 -20 -12 -12 -20
-33 -20 -54 0 -45 29 -66 92 -66 l48 0 0 -115 0 -115 -215 0 -215 0 0 115 0
115 50 0 c37 0 55 5 70 20 27 27 26 74 -2 100 -20 18 -35 20 -179 20 -143 0
-159 -2 -183 -21 -32 -25 -35 -70 -6 -99 15 -15 33 -20 70 -20 l50 0 0 -115 0
-115 -476 0 -475 0 -50 54 c-74 81 -120 97 -292 101 -136 3 -140 3 -163 -20
l-24 -24 0 -461 c0 -549 -13 -500 138 -500 118 0 212 14 261 40 20 10 58 41
86 69 l49 51 261 0 260 -1 -62 -57 c-157 -145 -230 -303 -240 -517 -5 -102 -2
-133 16 -204 56 -222 195 -391 403 -491 146 -70 139 -70 932 -70 679 0 712 1
795 20 445 106 686 601 496 1017 -43 93 -85 153 -158 225 -67 66 -69 65 76 43
506 -76 977 -292 1370 -627 37 -32 76 -58 86 -58 10 0 30 9 45 21 l26 20 0
1020 c0 1006 0 1019 -20 1039 -30 30 -69 24 -115 -16z m-7 -1434 l-3 -421 -56
43 c-30 24 -85 63 -122 88 l-67 44 0 657 0 658 88 60 c48 33 103 73 122 89
l35 30 3 -413 c1 -228 1 -603 0 -835z m-388 410 l0 -569 -118 59 c-276 138
-559 227 -877 276 -65 10 -207 19 -345 23 l-235 6 -3 206 -2 206 227 6 c341 9
627 60 918 165 118 42 328 135 385 170 19 12 38 22 43 22 4 0 7 -256 7 -570z
m-4005 359 c23 -7 53 -26 72 -47 l33 -36 0 -274 0 -274 -33 -33 c-39 -39 -89
-55 -174 -55 l-63 0 0 365 0 365 63 0 c34 0 80 -5 102 -11z m1173 -356 l-3
-208 -457 -3 -458 -2 0 210 0 210 460 0 460 0 -2 -207z m560 0 l-3 -208 -210
0 -210 0 -3 208 -2 207 215 0 215 0 -2 -207z m560 0 l-3 -208 -210 0 -210 0
-3 208 -2 207 215 0 215 0 -2 -207z m-1118 -441 l0 -88 -59 -12 c-148 -31
-271 -145 -315 -291 -63 -214 65 -452 278 -516 74 -23 1345 -24 1418 -1 158
48 281 200 295 364 17 204 -118 392 -319 442 l-48 12 0 89 0 89 33 0 c19 0 69
-9 112 -20 210 -54 375 -221 430 -435 19 -75 19 -202 0 -284 -48 -203 -226
-382 -431 -435 -92 -24 -1445 -24 -1537 0 -208 54 -377 223 -431 431 -19 71
-21 199 -5 275 6 29 29 90 51 136 48 102 141 201 239 255 71 40 190 76 252 76
l37 1 0 -88z m558 1 l-3 -88 -210 0 -210 0 -3 88 -3 87 216 0 216 0 -3 -87z
m560 0 l-3 -88 -210 0 -210 0 -3 88 -3 87 216 0 216 0 -3 -87z m-1118 -508 l0
-275 -22 0 c-33 1 -99 33 -139 68 -59 51 -84 114 -84 207 0 70 4 87 30 134 31
56 88 106 148 128 71 26 67 44 67 -262z m558 -2 l-3 -278 -210 0 -210 0 -3
278 -2 277 215 0 215 0 -2 -277z m560 0 l-3 -278 -210 0 -210 0 -3 278 -2 277
215 0 215 0 -2 -277z m209 251 c18 -7 52 -32 76 -57 58 -57 81 -125 75 -216
-5 -73 -22 -112 -71 -167 -29 -34 -115 -84 -144 -84 -10 0 -13 62 -13 276 l0
275 23 -7 c12 -3 36 -12 54 -20z"/>
</g>
</svg>
