<?xml version="1.0" standalone="no"?>
<!DOCTYPE svg PUBLIC "-//W3C//DTD SVG 20010904//EN"
 "http://www.w3.org/TR/2001/REC-SVG-20010904/DTD/svg10.dtd">
<svg version="1.0" xmlns="http://www.w3.org/2000/svg"
 width="512.000000pt" height="512.000000pt" viewBox="0 0 512.000000 512.000000"
 preserveAspectRatio="xMidYMid meet">

<g transform="translate(0.000000,512.000000) scale(0.100000,-0.100000)"
fill="#000000" stroke="none">
<path d="M1945 5100 c-34 -10 -79 -35 -102 -55 l-41 -35 -58 28 c-51 23 -71
27 -154 27 -84 0 -102 -3 -152 -28 -35 -17 -78 -51 -112 -88 -46 -49 -60 -73
-79 -136 l-23 -76 -44 -12 c-108 -28 -189 -90 -240 -187 -30 -56 -35 -74 -38
-156 l-4 -94 -44 -43 c-131 -132 -144 -337 -29 -490 18 -24 20 -35 12 -55 -17
-46 -11 -160 12 -222 27 -71 98 -151 162 -184 47 -23 49 -26 49 -67 0 -133 91
-278 207 -329 85 -38 157 -41 286 -12 l27 6 0 -356 0 -356 -585 0 c-619 0
-632 -1 -649 -45 -17 -47 7 -254 51 -435 112 -461 386 -890 763 -1196 226
-182 560 -355 830 -428 825 -223 1743 70 2285 729 258 313 416 658 486 1059
31 179 34 236 11 272 -13 20 -31 33 -52 38 -18 3 -270 6 -561 6 l-529 0 0 303
0 302 108 0 c98 0 112 3 160 28 106 55 164 140 186 267 l11 69 62 31 c69 35
129 95 164 168 19 38 24 63 24 137 0 82 -3 97 -32 156 -18 37 -33 70 -33 73 0
4 14 24 30 45 71 87 90 218 48 328 -16 43 -38 75 -85 122 -63 63 -64 64 -52
99 18 54 7 178 -22 237 -34 73 -112 147 -182 173 -62 24 -158 29 -215 13 -31
-9 -34 -8 -56 27 -58 90 -144 147 -249 165 -55 9 -75 8 -132 -8 -36 -9 -89
-33 -117 -52 l-50 -35 -51 22 c-101 44 -224 34 -308 -23 l-35 -24 -49 39 c-69
53 -168 83 -249 75 -33 -4 -71 -9 -83 -13 -16 -4 -23 -1 -28 16 -12 37 -117
135 -177 164 -78 38 -188 44 -273 16z m205 -162 c60 -31 97 -81 110 -148 11
-59 44 -100 81 -100 11 0 45 14 76 30 164 88 344 -45 304 -226 -12 -54 -12
-54 -51 -54 -96 0 -244 -76 -270 -140 -16 -37 -3 -71 34 -96 32 -20 61 -14
110 25 77 61 174 67 248 15 110 -77 112 -252 5 -323 -106 -71 -112 -100 -33
-175 29 -28 61 -67 71 -86 39 -76 12 -192 -57 -243 -42 -30 -59 -37 -131 -47
-94 -14 -116 -46 -92 -136 27 -105 -16 -203 -110 -245 -72 -33 -149 -23 -208
27 -64 53 -112 50 -157 -11 -101 -137 -287 -116 -356 41 -33 75 -84 86 -150
33 -54 -44 -95 -59 -156 -59 -94 1 -171 53 -198 136 -12 34 -10 71 5 154 9 47
-21 86 -78 101 -100 26 -160 99 -160 194 0 58 18 97 65 142 72 69 144 79 249
33 62 -28 72 -30 97 -18 41 20 56 59 38 101 -11 28 -28 42 -82 68 -63 31 -76
34 -164 34 -100 0 -139 -13 -216 -70 -29 -22 -31 -23 -42 -4 -22 35 -31 102
-21 148 13 59 40 95 107 139 69 46 78 71 50 144 -49 129 52 269 194 268 87 -1
174 -66 199 -151 15 -47 41 -69 85 -69 37 0 74 38 74 74 0 38 -58 145 -103
189 -25 24 -63 51 -86 62 -39 17 -41 21 -35 49 34 164 228 221 344 101 46 -47
91 -48 129 -4 54 65 93 99 124 108 56 16 111 12 157 -11z m1385 -187 c65 -29
115 -104 115 -173 0 -21 46 -58 73 -58 12 0 38 12 59 26 41 29 106 40 162 30
94 -18 159 -138 125 -233 -9 -29 -14 -31 -67 -35 -71 -5 -137 -36 -191 -90
-57 -59 -54 -110 10 -143 35 -19 63 -13 99 21 29 27 90 54 122 54 136 0 233
-137 182 -258 -17 -42 -61 -92 -81 -92 -24 0 -63 -51 -63 -83 0 -23 12 -41 54
-81 67 -63 79 -86 79 -151 0 -103 -63 -168 -176 -181 -35 -4 -64 -14 -78 -27
-22 -21 -22 -19 -3 -139 11 -70 -37 -157 -103 -184 -52 -22 -122 -17 -168 11
-105 65 -132 64 -181 -1 -53 -69 -148 -92 -230 -55 -40 18 -94 76 -94 100 0 7
-11 23 -25 36 -37 38 -77 33 -129 -15 -49 -46 -101 -70 -148 -70 -40 0 -106
30 -132 59 -17 18 -17 25 -7 48 7 15 15 58 18 95 4 49 10 68 20 68 29 0 118
54 162 98 121 121 142 298 53 442 l-28 45 38 50 c113 148 97 357 -36 483 -28
27 -57 51 -65 53 -10 4 -10 16 3 65 16 63 11 105 -20 166 -14 27 -13 28 26 54
78 52 169 42 239 -27 56 -54 98 -54 138 -2 81 107 157 136 248 94z m-896
-1865 c73 -69 210 -102 304 -73 l47 15 0 -324 0 -324 -370 0 -370 0 0 335 0
335 28 -11 c74 -30 233 -3 302 51 31 25 29 25 59 -4z m-718 -106 c37 0 86 7
109 15 23 8 46 15 51 15 5 0 9 -142 9 -315 l0 -315 -175 0 -175 0 0 324 0 324
58 -24 c40 -16 77 -24 123 -24z m1308 -36 c57 -18 135 -18 194 0 l47 14 0
-289 0 -289 -160 0 -160 0 0 296 c0 278 1 296 18 289 9 -4 37 -14 61 -21z
m236 -765 c-22 -62 -19 -136 9 -195 25 -54 66 -91 157 -142 85 -48 84 -45 53
-163 -29 -114 -28 -162 6 -228 42 -83 150 -155 295 -196 80 -23 127 -48 159
-86 l26 -31 -40 -48 c-74 -88 -275 -275 -368 -340 -80 -57 -287 -180 -302
-180 -3 0 -16 33 -29 73 -55 172 -131 296 -205 331 -18 8 -72 20 -119 25 -101
12 -129 24 -184 84 -50 55 -78 127 -108 286 -43 223 -82 319 -161 398 -69 68
-141 98 -239 97 -94 -1 -139 -18 -230 -87 -55 -41 -102 -95 -248 -283 -146
-187 -294 -216 -473 -93 -25 17 -100 81 -167 142 -228 207 -384 280 -643 302
l-81 7 -27 117 c-14 64 -30 146 -34 184 l-8 67 1487 0 1488 0 -14 -41z m1145
5 c0 -55 -46 -272 -81 -382 -41 -127 -112 -286 -182 -403 -86 -145 -76 -137
-128 -98 -50 38 -122 73 -247 120 -106 39 -152 81 -152 135 0 22 7 66 15 99
39 163 -3 258 -144 330 -105 53 -118 128 -39 213 l21 22 469 0 468 0 0 -36z
m-2113 -495 c42 -16 82 -58 113 -119 31 -62 43 -110 65 -255 28 -179 67 -280
143 -365 54 -62 120 -95 237 -121 55 -11 108 -25 118 -30 9 -6 30 -35 46 -67
40 -79 93 -234 84 -243 -13 -12 -203 -68 -303 -88 -169 -34 -293 -44 -495 -38
-130 4 -225 12 -300 26 -451 86 -832 288 -1137 606 -170 177 -317 402 -418
639 l-20 48 56 -7 c123 -15 244 -60 339 -125 25 -17 110 -86 188 -152 78 -67
168 -139 201 -159 153 -100 301 -113 446 -39 79 41 129 87 243 229 126 156
188 217 252 247 54 26 98 30 142 13z"/>
</g>
</svg>
