<svg width="682.667" height="682.667" preserveAspectRatio="xMidYMid meet" version="1.0" viewBox="0 0 512 512"><path d="M175.5 1.3c-9.7 3.3-16.7 9.4-21.2 18.5-2.5 5-2.8 6.8-2.8 15.2 0 12.4 2.8 21.2 9.6 31.5 8.3 12.4 21.7 22.3 38 28l7.6 2.6 7.9-3c18.6-7.2 32.8-19.2 40.1-33.8 5.1-10.1 6.7-17.3 6.1-27.8-.8-13.3-6.9-23-18.1-28.5-10.6-5.2-20.7-5-31.9.6L206.1 7l-6.4-3.1C192 .3 181.8-.8 175.5 1.3zM191.9 19c2.4 1.1 5.9 3.4 7.8 5 4.6 4.1 7.7 3.9 14.1-1 11.7-8.7 22.3-7.8 27.6 2.5 1.6 3 2.1 5.8 2.1 11.5 0 10.3-4 18.8-12.9 27.5-5.9 5.8-20.4 14.5-24.1 14.5-2.8 0-14.3-5.9-20-10.3-16.6-12.6-22.7-31.9-14.5-45.2 3.9-6.3 11.9-8.1 19.9-4.5zM66.2 111.7c-4.2 2-6.9 5.5-8.2 10.5-.8 2.6-1 32.4-.8 92.1.4 97.9.1 92.6 7.3 108.2 4.9 10.7 11 18.1 25.7 31.1 18.7 16.7 24.8 23.1 28.5 29.9 4.7 8.8 5.4 15.5 5.1 45.5l-.3 26.5-7.5.7c-16.2 1.7-30.6 6.7-38 13.4-9.5 8.6-9.4 20.2.3 28.6 15.6 13.4 58.5 17.9 88.5 9.2 14.1-4.1 21.9-9.3 25.3-16.9 7.4-16.3-11.2-31.1-43.1-34.3l-7.5-.7-.3-28.5c-.5-43.7-.8-42.9 34.2-74 16.6-14.8 23.2-24.1 28.7-40.5 2.3-6.8 2.3-8.3 2.9-51.5l.5-44.5 23.9 56c13.1 30.8 25.7 59.6 28 64 3 6 6.1 10.1 12.6 16.5 10.8 10.9 17.8 14.6 45 23.6 23 7.7 29.9 11.5 36.2 19.9 3.3 4.3 26.6 56.2 25.6 56.9-.2.2-3.5 2.2-7.5 4.5-20.7 12.2-32.4 28.1-29.1 39.7 1.5 5.5 7.2 10.9 13.8 12.8 16.8 5 47.7-3.3 72.4-19.4 19.1-12.4 28.5-26.4 25.5-37.6-1.5-5.1-7.4-10.9-12.9-12.5-7.3-2.2-22-1.5-33 1.6-5.2 1.4-10.4 2.8-11.5 3.1-1.8.5-3.2-2.3-12.7-24.8-5.9-13.9-11.1-27.3-11.7-29.8-2.4-10.2-.7-19.4 6.1-34.5 16.8-37.4 18.4-43 17.5-60.5-.3-5.8-1.3-13-2.2-16-3.4-11.1-68.7-162.5-71.3-165.2-3.1-3.4-8.4-5.2-12.4-4.4-1.7.3-25.3 10.5-52.4 22.6-27.1 12.1-49.6 22-49.9 22-.3 0-.5-7.5-.5-16.6 0-15.2-.2-17-2.2-20.5-1.4-2.5-3.7-4.6-6.3-5.9-4-1.9-6.1-2-66.6-2-55.5 0-62.8.2-65.7 1.7zM190 164.4v37.5l-3.3 2.5c-1.8 1.4-6.3 3.9-10 5.7-12.6 5.8-22.9 3.8-53-10.5-18.7-9-24.4-10.8-33.7-10.7-4.1 0-9.1.5-11 1.1-1.9.5-3.8 1-4.2 1-1 0-1.1-62.4-.1-63.3.3-.4 26.4-.7 58-.7H190v37.4zm131.5-11.2c5.9 13.9 16.3 38.3 23.1 54.1l12.2 28.8-8.1 6.1c-20.8 15.4-43.5 22-60.2 17.4-16.4-4.5-36.1-17-54.6-34.8l-7.6-7.3-9.2-21.9c-5.1-12-9.1-21.9-8.9-22 .7-.5 101.3-45.4 101.9-45.5.3-.1 5.4 11.3 11.4 25.1zm-204.5 62c18.5 8.6 33.5 14 42 15.3 6 .9 15.8-1 24.3-4.5l6.8-2.9-.3 40.2c-.4 38.9-.5 40.4-2.7 46.4-1.2 3.4-4 8.9-6.1 12.2-26.7 41.3-88.1 33.4-103.7-13.4l-2.7-8v-45l-.1-45 4.5-2.3c3.8-2 5.7-2.3 12-1.9 7 .3 8.9 1 26 8.9zm252.7 50.9c3 6.8 6.3 15.7 7.4 19.8 5.2 19.9-.5 40.5-15.1 55.1-20.4 20.4-51.1 22.1-73.8 4.1-9.6-7.6-12.8-13.2-29.5-52.4-8.7-20.1-15.7-36.8-15.7-37.1 0-.4 2.4 1.1 5.3 3.3 7.1 5.4 21.4 12.6 31.2 15.7 10.9 3.5 25.4 4.3 36.1 1.9 13.5-2.9 30.8-11.1 42.4-19.9 2.5-1.9 4.9-3.4 5.4-3.2.5.1 3.4 5.8 6.3 12.7zM134.8 369c-1.2 1.6-2.3 3-2.4 3-.2 0-1.2-1.4-2.4-3l-2.1-3h9.2l-2.3 3zm220.5 1.7c-.5 3.2-.5 3.2-3.4 1.7-1.6-.8-2.9-1.7-2.9-2 0-.5 6.3-3.4 6.6-3.1.1.1-.1 1.6-.3 3.4zm78.6 85.9c4 .8 4 2.7-.4 8-9.8 11.9-34.9 25.1-55.3 29-8.5 1.6-16 1.8-18.2.4-3.8-2.4 7.5-14.3 20.4-21.7l5.6-3.2 1.4 3.4c4.5 10.8 19.6 4.5 15.7-6.6-.6-1.7-.9-3.5-.6-3.9 1-1.6 18-5.4 26.1-5.9 1.2 0 3.6.2 5.3.5zM124 476.5c0 4.8 3.7 8.5 8.3 8.5 4.9 0 7.7-2.6 8.4-7.8.5-4 .7-4.2 4-4.2 8.9 0 28.3 5.9 31.4 9.6.8 1 .2 1.9-2.8 3.8-12.8 8.3-44.9 10.9-67.2 5.6-8-1.9-18.1-6.4-18.1-8.1 0-1.3 5.2-4.5 10.3-6.4 6.5-2.4 15.2-4.3 21-4.4l4.7-.1v3.5z" fill="#000"/></svg>