<?xml version="1.0" standalone="no"?>
<!DOCTYPE svg PUBLIC "-//W3C//DTD SVG 20010904//EN"
 "http://www.w3.org/TR/2001/REC-SVG-20010904/DTD/svg10.dtd">
<svg version="1.0" xmlns="http://www.w3.org/2000/svg"
 width="512.000000pt" height="512.000000pt" viewBox="0 0 512.000000 512.000000"
 preserveAspectRatio="xMidYMid meet">

<g transform="translate(0.000000,512.000000) scale(0.100000,-0.100000)"
fill="#000000" stroke="none">
<path d="M445 4121 c-11 -5 -28 -17 -37 -28 -22 -24 -408 -917 -408 -943 0
-33 23 -71 51 -86 23 -11 88 -14 329 -14 l300 0 0 -225 0 -225 -232 0 c-128 0
-253 -5 -278 -11 -66 -15 -115 -53 -145 -112 l-25 -51 0 -526 c0 -368 3 -537
11 -561 18 -53 57 -98 105 -122 l44 -21 0 -58 c0 -70 19 -112 60 -133 36 -19
44 -19 85 0 41 20 55 51 55 125 l0 60 440 0 440 0 0 -65 c0 -77 17 -109 65
-125 26 -9 41 -8 70 4 44 19 65 63 65 138 l1 53 51 30 c40 23 59 42 80 84 l28
53 0 522 c0 333 -4 535 -11 559 -13 47 -60 102 -113 130 -39 21 -56 22 -318
25 l-278 4 0 224 0 224 310 0 310 0 30 28 c57 51 58 46 -159 547 -175 405
-203 463 -231 483 -33 22 -37 22 -354 21 -177 0 -330 -4 -341 -8z m721 -526
c79 -181 143 -333 143 -337 1 -5 -237 -8 -528 -8 l-528 0 138 320 c76 176 143
329 149 340 11 20 19 20 247 18 l236 -3 143 -330z m229 -1700 l0 -500 -597 -3
-598 -2 0 498 c0 274 3 502 7 505 3 4 272 6 597 5 l591 -3 0 -500z"/>
<path d="M425 1968 c-56 -49 -40 -134 31 -164 44 -18 78 -10 110 29 22 26 25
38 21 71 -11 79 -103 115 -162 64z"/>
<path d="M2298 3866 c-105 -38 -191 -118 -230 -215 -22 -55 -23 -65 -26 -484
l-3 -427 -28 -15 c-51 -26 -91 -67 -119 -119 l-27 -51 -3 -648 -3 -648 30 -29
29 -30 126 0 126 0 0 -70 c0 -63 3 -73 29 -102 24 -27 36 -33 71 -33 35 0 47
6 71 33 26 29 29 39 29 102 l0 70 1133 -2 1132 -3 5 -72 c4 -62 9 -77 33 -100
38 -38 96 -38 134 0 24 24 28 36 31 102 l4 75 109 0 c100 0 110 2 136 24 l28
24 3 632 c1 397 -1 645 -8 668 -16 61 -66 130 -117 162 l-48 31 -5 427 c-5
414 -6 429 -28 483 -25 64 -87 140 -141 173 -86 54 -106 56 -508 56 l-373 0
-31 -28 c-34 -30 -42 -79 -20 -121 24 -44 38 -46 426 -51 368 -5 370 -5 403
-28 67 -49 67 -43 70 -489 l3 -403 -121 0 -120 0 0 183 c0 170 -2 185 -24 232
-28 62 -87 116 -152 141 -44 17 -79 19 -369 19 -176 0 -336 -3 -356 -8 -21 -4
-53 -19 -73 -32 l-36 -24 -36 24 c-20 13 -52 28 -73 32 -20 5 -180 8 -356 8
-362 0 -381 -3 -461 -77 -73 -67 -87 -115 -92 -320 l-4 -178 -115 0 -114 0 3
403 c3 446 3 440 70 489 33 23 35 23 401 28 l369 5 29 33 c44 49 34 119 -22
148 -39 20 -735 20 -791 0z m1068 -759 c23 -27 24 -33 24 -188 l0 -159 -360 0
-360 0 0 144 c0 81 5 157 11 176 20 57 39 60 367 57 l294 -2 24 -28z m883 22
c17 -6 36 -19 41 -29 6 -10 10 -91 10 -179 l0 -161 -355 0 -355 0 0 158 c0
168 6 193 54 212 32 13 567 12 605 -1z m624 -581 c46 -24 46 -29 47 -330 l0
-288 -1430 0 -1430 0 0 288 c1 299 1 305 45 330 29 17 2737 17 2768 0z m47
-983 l0 -165 -1430 0 -1430 0 0 165 0 165 1430 0 1430 0 0 -165z"/>
<path d="M3434 3862 c-51 -41 -57 -97 -15 -144 24 -27 36 -33 71 -33 100 0
136 135 49 181 -37 19 -79 17 -105 -4z"/>
</g>
</svg>
